<svg version="1.1" xmlns="http://www.w3.org/2000/svg" viewBox="-307.2 -1085.2 6023.4 1623.9"><desc>Created with Snap</desc><defs></defs><g><g><g transform="matrix(0.5,0,0,-0.5,0,0)"><path d="M840 1161L1110 344Q1146 437 1186 551Q1226 666 1259 783Q1293 901 1315 1012Q1337 1123 1337 1210Q1337 1276 1328 1320Q1319 1364 1307 1393Q1296 1423 1287 1442Q1278 1461 1278 1477Q1278 1498 1289 1512Q1301 1527 1318 1537Q1335 1547 1355 1551Q1375 1556 1393 1556Q1433 1556 1460 1544Q1488 1532 1499 1503Q1504 1488 1507 1471Q1510 1455 1511 1439Q1513 1424 1513 1410Q1513 1397 1513 1389Q1513 1347 1499 1274Q1485 1201 1461 1109Q1438 1017 1407 912Q1376 807 1343 700Q1310 594 1276 492Q1242 390 1212 303Q1182 217 1158 152Q1135 87 1122 55Q1113 32 1099 18Q1086 4 1069 -4Q1052 -11 1031 -14Q1011 -16 989 -16Q949 -16 924 -8Q899 0 883 12Q868 24 861 38Q854 52 850 63L471 1253Q460 1287 448 1310Q437 1334 420 1349Q404 1364 381 1371Q358 1378 324 1378Q296 1378 259 1364Q222 1351 188 1324Q155 1298 132 1258Q109 1219 109 1167Q109 1135 117 1116Q126 1097 137 1087Q148 1078 159 1075Q171 1073 176 1073Q201 1073 217 1081Q233 1090 246 1099Q259 1109 270 1117Q282 1126 297 1126Q309 1126 322 1120Q336 1115 347 1103Q359 1091 367 1071Q375 1052 375 1024Q375 984 359 955Q344 926 319 906Q295 887 263 877Q232 868 201 868Q153 868 115 885Q78 902 52 931Q27 960 13 998Q0 1037 0 1081Q0 1185 40 1262Q80 1340 146 1392Q212 1444 296 1469Q380 1495 469 1495Q569 1495 633 1464Q697 1434 736 1386Q776 1338 799 1278Q822 1219 840 1161ZM1957 872L1957 90Q1957 77 1952 58Q1948 40 1931 23Q1915 7 1884 -5Q1853 -16 1800 -16Q1747 -16 1717 -4Q1687 9 1672 26Q1657 43 1653 61Q1650 79 1650 90L1650 862Q1650 891 1636 912Q1623 934 1591 934Q1574 934 1562 928Q1550 922 1536 911L1515 936Q1538 955 1566 973Q1595 992 1628 1006Q1661 1020 1699 1029Q1737 1038 1779 1038Q1844 1038 1880 1020Q1916 1003 1933 977Q1950 952 1953 923Q1957 894 1957 872ZM1619 1266Q1619 1294 1631 1319Q1644 1345 1666 1364Q1689 1383 1718 1394Q1748 1405 1783 1405Q1817 1405 1846 1394Q1876 1383 1898 1364Q1920 1345 1932 1319Q1945 1294 1945 1266Q1945 1237 1932 1212Q1920 1187 1898 1168Q1876 1150 1846 1139Q1817 1128 1783 1128Q1748 1128 1718 1139Q1689 1150 1666 1168Q1644 1187 1631 1212Q1619 1237 1619 1266ZM2772 498Q2772 585 2763 661Q2754 738 2734 795Q2714 853 2683 886Q2652 920 2608 920Q2574 920 2550 903Q2527 887 2512 866Q2497 845 2490 824Q2483 804 2483 797L2483 498Q2483 280 2519 181Q2556 82 2627 82Q2702 82 2737 183Q2772 284 2772 498ZM2176 485L2176 1380Q2176 1409 2162 1430Q2149 1452 2117 1452Q2100 1452 2087 1446Q2075 1441 2061 1430L2041 1454Q2064 1473 2092 1491Q2121 1510 2154 1524Q2187 1538 2225 1547Q2263 1556 2305 1556Q2363 1556 2398 1538Q2434 1521 2452 1495Q2471 1470 2477 1440Q2483 1411 2483 1386L2483 940Q2495 951 2514 967Q2533 984 2562 1000Q2591 1016 2631 1027Q2672 1038 2727 1038Q2791 1038 2855 1008Q2919 979 2970 916Q3021 853 3053 754Q3085 655 3085 516Q3085 407 3055 310Q3026 213 2968 140Q2910 68 2823 26Q2736 -16 2621 -16Q2496 -16 2410 24Q2325 65 2273 133Q2221 202 2198 293Q2176 384 2176 485ZM3931 692L3536 459Q3536 427 3545 389Q3555 352 3573 314Q3591 276 3617 241Q3644 207 3678 180Q3713 153 3755 137Q3797 121 3847 121Q3882 121 3912 129Q3942 137 3968 151Q3994 165 4018 183Q4042 202 4066 223L4091 199Q4068 168 4032 131Q3996 94 3945 61Q3894 29 3826 7Q3758 -14 3671 -14Q3584 -14 3501 17Q3419 49 3355 112Q3291 175 3252 269Q3214 363 3214 489Q3214 580 3237 656Q3260 732 3299 793Q3339 854 3391 900Q3444 946 3502 976Q3560 1007 3620 1022Q3681 1038 3737 1038Q3811 1038 3866 1022Q3921 1006 3957 979Q3994 952 4012 916Q4030 881 4030 842Q4030 795 4003 757Q3976 720 3931 692ZM3526 541L3737 662Q3750 670 3758 677Q3767 685 3772 695Q3777 706 3779 721Q3782 737 3782 760Q3782 785 3776 815Q3771 846 3758 873Q3745 900 3725 918Q3705 936 3677 936Q3641 936 3615 914Q3590 893 3573 859Q3557 825 3547 781Q3538 738 3533 694Q3528 650 3527 609Q3526 569 3526 541ZM4937 180L4937 180Q4937 44 4887 -57Q4838 -158 4752 -226Q4666 -293 4549 -327Q4433 -360 4300 -360Q4249 -360 4202 -352Q4155 -343 4119 -328Q4083 -313 4061 -293Q4040 -272 4040 -248Q4040 -230 4045 -212Q4050 -193 4060 -178Q4070 -163 4084 -153Q4099 -143 4117 -143Q4128 -143 4136 -154Q4145 -165 4154 -182Q4163 -198 4174 -217Q4186 -236 4204 -253Q4223 -269 4249 -280Q4275 -291 4314 -291Q4391 -291 4446 -263Q4502 -235 4538 -184Q4574 -133 4591 -63Q4609 8 4609 92L4609 1335Q4609 1357 4604 1370Q4599 1383 4590 1390Q4581 1398 4568 1400Q4556 1403 4541 1403Q4519 1403 4486 1396Q4454 1389 4418 1375Q4382 1361 4345 1340Q4309 1320 4280 1294Q4252 1268 4234 1236Q4216 1204 4216 1167Q4216 1135 4224 1116Q4233 1097 4244 1087Q4255 1078 4266 1075Q4278 1073 4283 1073Q4308 1073 4324 1081Q4340 1090 4353 1099Q4366 1109 4377 1117Q4389 1126 4404 1126Q4416 1126 4429 1120Q4443 1115 4454 1103Q4466 1091 4474 1071Q4482 1052 4482 1024Q4482 984 4466 955Q4451 926 4426 906Q4402 887 4370 877Q4339 868 4308 868Q4260 868 4221 884Q4183 901 4156 930Q4129 959 4115 998Q4101 1037 4101 1081Q4101 1150 4126 1207Q4151 1265 4194 1311Q4238 1357 4296 1391Q4355 1426 4423 1449Q4491 1472 4565 1483Q4639 1495 4713 1495Q4795 1495 4840 1479Q4886 1464 4907 1442Q4929 1420 4933 1396Q4937 1372 4937 1356L4937 180ZM5866 692L5471 459Q5471 427 5480 389Q5490 352 5508 314Q5526 276 5552 241Q5579 207 5613 180Q5648 153 5690 137Q5732 121 5782 121Q5817 121 5847 129Q5877 137 5903 151Q5929 165 5953 183Q5977 202 6001 223L6026 199Q6003 168 5967 131Q5931 94 5880 61Q5829 29 5761 7Q5693 -14 5606 -14Q5519 -14 5436 17Q5354 49 5290 112Q5226 175 5187 269Q5149 363 5149 489Q5149 580 5172 656Q5195 732 5234 793Q5274 854 5326 900Q5379 946 5437 976Q5495 1007 5555 1022Q5616 1038 5672 1038Q5746 1038 5801 1022Q5856 1006 5892 979Q5929 952 5947 916Q5965 881 5965 842Q5965 795 5938 757Q5911 720 5866 692ZM5461 541L5672 662Q5685 670 5693 677Q5702 685 5707 695Q5712 706 5714 721Q5717 737 5717 760Q5717 785 5711 815Q5706 846 5693 873Q5680 900 5660 918Q5640 936 5612 936Q5576 936 5550 914Q5525 893 5508 859Q5492 825 5482 781Q5473 738 5468 694Q5463 650 5462 609Q5461 569 5461 541ZM7379 721Q7379 787 7370 830Q7361 873 7350 901Q7340 930 7331 948Q7322 967 7322 983Q7322 998 7334 1008Q7346 1018 7362 1025Q7379 1032 7396 1035Q7414 1038 7425 1038Q7454 1038 7467 1030Q7480 1022 7488 999Q7497 970 7500 922Q7504 875 7504 821Q7504 744 7495 652Q7486 560 7466 467Q7447 374 7416 287Q7386 200 7343 132Q7300 65 7244 24Q7188 -16 7117 -16Q7061 -16 7016 6Q6972 29 6937 68Q6902 107 6875 159Q6849 212 6829 272Q6806 211 6776 158Q6746 106 6709 67Q6673 28 6629 6Q6585 -16 6534 -16Q6471 -16 6422 11Q6374 39 6337 86Q6300 134 6273 197Q6246 260 6226 330Q6207 400 6194 474Q6181 548 6172 617Q6163 686 6157 746Q6151 806 6145 850Q6138 890 6124 912Q6111 934 6079 934Q6062 934 6050 928Q6038 922 6024 911L6003 936Q6026 955 6054 973Q6083 992 6116 1006Q6149 1020 6187 1029Q6225 1038 6267 1038Q6327 1038 6364 1017Q6401 997 6422 966Q6444 936 6453 901Q6462 866 6466 838Q6484 687 6501 572Q6519 457 6539 379Q6559 302 6582 262Q6606 223 6638 223Q6659 223 6679 241Q6699 259 6717 291Q6735 323 6751 368Q6767 414 6779 469Q6769 524 6762 578Q6755 632 6749 681Q6744 731 6739 774Q6734 817 6728 850Q6713 944 6745 991Q6778 1038 6876 1038Q6919 1038 6948 1030Q6978 1023 6997 1002Q7017 982 7029 946Q7041 911 7048 856Q7067 706 7085 588Q7103 470 7123 389Q7143 308 7166 265Q7190 223 7222 223Q7256 223 7285 265Q7314 307 7335 376Q7356 445 7367 535Q7379 625 7379 721ZM8352 692L7957 459Q7957 427 7966 389Q7976 352 7994 314Q8012 276 8038 241Q8065 207 8099 180Q8134 153 8176 137Q8218 121 8268 121Q8303 121 8333 129Q8363 137 8389 151Q8415 165 8439 183Q8463 202 8487 223L8512 199Q8489 168 8453 131Q8417 94 8366 61Q8315 29 8247 7Q8179 -14 8092 -14Q8005 -14 7922 17Q7840 49 7776 112Q7712 175 7673 269Q7635 363 7635 489Q7635 580 7658 656Q7681 732 7720 793Q7760 854 7812 900Q7865 946 7923 976Q7981 1007 8041 1022Q8102 1038 8158 1038Q8232 1038 8287 1022Q8342 1006 8378 979Q8415 952 8433 916Q8451 881 8451 842Q8451 795 8424 757Q8397 720 8352 692ZM7947 541L8158 662Q8171 670 8179 677Q8188 685 8193 695Q8198 706 8200 721Q8203 737 8203 760Q8203 785 8197 815Q8192 846 8179 873Q8166 900 8146 918Q8126 936 8098 936Q8062 936 8036 914Q8011 893 7994 859Q7978 825 7968 781Q7959 738 7954 694Q7949 650 7948 609Q7947 569 7947 541ZM8956 1391L8956 88Q8956 75 8951 57Q8947 39 8930 23Q8914 7 8882 -5Q8851 -16 8798 -16Q8745 -16 8715 -4Q8685 9 8670 26Q8656 43 8652 61Q8649 79 8649 90L8649 1380Q8649 1409 8635 1430Q8622 1452 8590 1452Q8573 1452 8560 1446Q8548 1441 8534 1430L8514 1454Q8537 1473 8565 1491Q8593 1510 8626 1524Q8660 1538 8698 1547Q8736 1556 8778 1556Q8843 1556 8879 1538Q8915 1521 8932 1495Q8949 1470 8952 1441Q8956 1413 8956 1391ZM9527 827Q9565 885 9608 932Q9626 952 9647 971Q9668 990 9690 1005Q9713 1020 9737 1029Q9761 1038 9785 1038Q9836 1038 9865 1007Q9894 977 9894 922Q9894 888 9888 856Q9883 825 9867 780L9839 780Q9833 811 9811 831Q9789 852 9747 852Q9716 852 9686 840Q9656 829 9627 812Q9599 795 9573 775Q9548 755 9527 737L9527 88Q9527 75 9523 57Q9519 39 9503 23Q9488 7 9457 -5Q9427 -16 9374 -16Q9321 -16 9290 -4Q9260 9 9244 26Q9228 43 9224 61Q9220 79 9220 90L9220 862Q9220 891 9206 912Q9193 934 9161 934Q9144 934 9132 928Q9120 922 9106 911L9085 936Q9108 955 9136 973Q9165 992 9198 1006Q9231 1020 9269 1029Q9307 1038 9349 1038Q9392 1038 9422 1026Q9453 1015 9472 996Q9492 978 9503 955Q9514 932 9519 908Q9525 885 9526 863Q9527 842 9527 827ZM10818 881Q10818 698 10782 527Q10747 357 10684 207Q10622 58 10536 -66Q10450 -189 10349 -277Q10248 -365 10135 -414Q10023 -463 9908 -463Q9820 -463 9772 -434Q9724 -404 9724 -354Q9724 -335 9730 -317Q9736 -299 9746 -285Q9756 -271 9770 -263Q9784 -254 9800 -254Q9819 -254 9831 -273Q9844 -292 9858 -315Q9872 -337 9892 -356Q9912 -375 9947 -375Q9992 -375 10041 -360Q10090 -344 10139 -315Q10189 -286 10238 -245Q10288 -203 10336 -152Q10308 -51 10271 68Q10235 188 10194 309Q10154 430 10111 542Q10069 655 10028 742Q9988 829 9950 881Q9913 934 9884 934Q9865 934 9854 928Q9844 922 9830 911L9810 936Q9830 953 9852 971Q9874 989 9904 1004Q9934 1019 9974 1028Q10014 1038 10070 1038Q10131 1038 10183 1010Q10236 983 10279 909Q10310 854 10343 777Q10377 700 10411 605Q10445 510 10479 399Q10514 289 10549 168Q10611 298 10649 443Q10687 589 10687 743Q10687 798 10680 837Q10673 876 10664 903Q10655 931 10648 950Q10641 970 10641 985Q10641 1000 10653 1010Q10665 1021 10682 1027Q10699 1033 10716 1035Q10734 1038 10746 1038Q10773 1038 10787 1027Q10802 1016 10809 995Q10816 975 10817 946Q10818 917 10818 881Z" fill="#5b84b1" style=""></path></g></g></g></svg>